<?xml version="1.0" encoding="UTF-8" standalone="no"?><!DOCTYPE svg PUBLIC "-//W3C//DTD SVG 1.1//EN" "http://www.w3.org/Graphics/SVG/1.1/DTD/svg11.dtd"><svg width="100%" height="100%" viewBox="0 0 200 200" version="1.1" xmlns="http://www.w3.org/2000/svg" xmlns:xlink="http://www.w3.org/1999/xlink" xml:space="preserve" style="fill-rule:evenodd;clip-rule:evenodd;stroke-linejoin:round;stroke-miterlimit:1.41421;"><rect id="csv-icon" x="0" y="0" width="200" height="200" style="fill:none;"/><path d="M195,34.462c0,-14.881 -12.081,-26.962 -26.962,-26.962l-136.076,0c-14.881,0 -26.962,12.081 -26.962,26.962l0,131.076c0,14.881 12.081,26.962 26.962,26.962l136.076,0c14.881,0 26.962,-12.081 26.962,-26.962l0,-131.076Z" style="fill:#e5eefd;"/><circle cx="35" cy="100" r="17" style="fill:#1a5ec6;"/><circle cx="163" cy="100" r="17" style="fill:#1a5ec6;"/><circle cx="100" cy="100" r="17" style="fill:#1a5ec6;"/><path d="M116.678,103c-2.724,12.622 -10.094,24.921 -20.678,37l-5.311,-2.352c7.667,-9.818 10.072,-22.34 9.311,-34.648l16.678,0Z" style="fill:#1a5ec6;"/></svg>