<svg width="120" height="50" viewBox="0 0 120 50" xmlns="http://www.w3.org/2000/svg"><title>dnsimple-logo-footer</title><path d="M27.396 5.553c-.39 0-.778.02-1.147.102v3.81c-.533-.206-1.148-.308-1.967-.308-2.908 0-5.283 1.986-5.283 5.18 0 3.277 2.17 5.08 5.365 5.08 1.577 0 3.195-.43 4.198-.963v-12.8c-.39-.08-.798-.1-1.167-.1zM24.324 17.39c-1.76 0-2.97-1.19-2.97-3.093 0-1.884 1.29-3.092 3.01-3.092.697 0 1.332.082 1.885.43v5.447c-.615.225-1.25.328-1.926.307zM35.77 9.115c-2.087 0-3.787.82-4.647 1.536v8.457c.39.08.778.102 1.147.102.39 0 .798-.02 1.167-.103v-7.332c.45-.266 1.25-.532 2.15-.532 1.495 0 2.355.676 2.355 2.457v5.406c.41.08.778.102 1.167.102.368 0 .777-.02 1.166-.103v-5.96c0-2.232-1.372-4.034-4.505-4.034zm10.384 10.32c2.662 0 4.218-1.228 4.218-3.255 0-1.924-1.536-2.64-3.645-2.968-1.66-.267-2.09-.574-2.09-1.21 0-.613.534-1.002 1.762-1.002 1.167 0 2.17.348 2.846.737.47-.368.778-.942.88-1.66-.635-.45-1.884-.94-3.645-.94-2.456 0-4.074 1.228-4.074 3.03 0 2.048 1.638 2.683 3.36 2.95 1.74.265 2.292.634 2.292 1.29 0 .654-.49 1.166-1.863 1.166-1.536 0-2.396-.532-2.99-.962-.492.308-.88.86-1.065 1.598.553.47 1.843 1.23 4.014 1.23zM53.608 7.95c.798 0 1.474-.656 1.474-1.476S54.406 5 53.608 5c-.84 0-1.516.655-1.516 1.474 0 .82.676 1.475 1.516 1.475zm0 11.262c.39 0 .778-.02 1.146-.103V9.422c-.368-.082-.778-.102-1.146-.102-.39 0-.78.02-1.168.103v9.686c.39.08.8.102 1.168.102zM68.413 9.116c-1.31 0-2.498.512-3.297 1.126-.717-.696-1.782-1.126-3.174-1.126-2.027 0-3.788.86-4.567 1.536v8.457c.39.08.78.102 1.147.102.39 0 .8-.02 1.167-.103v-7.332c.51-.307 1.228-.532 1.986-.532 1.577 0 2.17 1.003 2.17 2.396v5.467c.39.08.78.102 1.188.102.37 0 .778-.02 1.147-.103v-6.165c0-.307-.04-.614-.102-.9.47-.39 1.127-.8 2.07-.8 1.576 0 2.19 1.004 2.19 2.397v5.467c.368.08.758.102 1.167.102.37 0 .778-.02 1.147-.103v-6.165c0-2.11-1.434-3.83-4.24-3.83zm11.058.02c-1.842 0-3.378.717-4.32 1.495V22.9c.41.082.778.102 1.167.102.39 0 .78-.02 1.147-.102V19.13c.614.204 1.27.286 2.09.286 2.702 0 5.14-1.904 5.14-5.18 0-3.36-2.254-5.1-5.223-5.1zm-.08 8.212c-.76 0-1.373-.123-1.926-.39v-5.22c.594-.328 1.23-.472 1.905-.472 1.78 0 2.988 1.126 2.988 2.99 0 1.925-1.208 3.092-2.97 3.092zm8.58 1.864c.388 0 .798-.02 1.167-.103V5.675c-.39-.082-.8-.103-1.188-.103-.39 0-.78.02-1.148.103V19.11c.41.08.8.102 1.167.102zm12.593-5.693c0-2.602-1.843-4.383-4.444-4.383-2.765 0-4.874 2.17-4.874 5.18 0 3.174 2.088 5.1 4.996 5.1 1.946 0 3.215-.717 4.034-1.373-.08-.593-.49-1.25-1.003-1.576-.635.45-1.454 1.003-2.867 1.003-1.618 0-2.6-.982-2.785-2.58h6.86c.063-.532.083-.86.083-1.37zm-6.92-.165c.162-1.33 1.043-2.335 2.476-2.335 1.576.02 2.17 1.188 2.17 2.335h-4.648z" fill="#000" fill-rule="evenodd"/></svg>