<svg width="80" height="80" viewBox="0 0 80 80" xmlns="http://www.w3.org/2000/svg"><title>logo</title><g fill="none" fill-rule="evenodd"><path d="M48.97 49.358c-1.373 2.703-2.945 5.025-4.72 6.967-1.815 2.027-3.736 3.822-5.763 5.384-2.027 1.562-3.884 2.786-5.573 3.673L30 61.14c2.027-1.268 3.842-2.534 5.447-3.8 1.605-1.268 2.914-2.535 3.927-3.8 1.267-1.48 2.344-3.084 3.23-4.815.887-1.73 1.457-3.695 1.71-5.89h-3.23c-2.83 0-5.035-.74-6.62-2.217-1.582-1.478-2.374-3.463-2.374-5.954 0-1.774.718-3.494 2.154-5.162 1.435-1.668 3.4-2.502 5.89-2.502 3.63 0 6.355 1.214 8.17 3.642 1.816 2.428 2.724 5.795 2.724 10.102 0 3.04-.686 5.912-2.058 8.614z" fill="#FF7F48"/><path d="M48.997 25.677s3.56-.57 4.39-1.67c.83-1.104.61-2.672-.492-3.502-1.103-.83-2.67-.61-3.5.492-.832 1.102-.398 4.68-.398 4.68zM31.895 25.677s-3.56-.57-4.39-1.67c-.83-1.104-.61-2.672.492-3.502 1.102-.83 2.67-.61 3.5.492.832 1.102.398 4.68.398 4.68zM40.5 23.97s-3.272-5.89-3.272-7.698c0-1.807 1.465-3.272 3.272-3.272 1.807 0 3.272 1.465 3.272 3.272 0 1.807-3.272 7.7-3.272 7.7z" fill="#E6E6FB"/></g></svg>